<?xml version="1.0" encoding="utf-8"?>
<!-- Generator: Adobe Illustrator 16.0.3, SVG Export Plug-In . SVG Version: 6.00 Build 0)  -->
<!DOCTYPE svg PUBLIC "-//W3C//DTD SVG 1.1//EN" "http://www.w3.org/Graphics/SVG/1.1/DTD/svg11.dtd">
<svg version="1.1" xmlns="http://www.w3.org/2000/svg" xmlns:xlink="http://www.w3.org/1999/xlink" x="0px" y="0px" width="24px"
	 height="24px" viewBox="0 0 24 24" enable-background="new 0 0 24 24" xml:space="preserve">
<g id="Carrier">
	<path d="M17,15c1.305,0,2.403,0.837,2.816,2h3.082c0.568-1.236,0.934-2.581,1.051-4H13v4h1.184l0,0C14.597,15.838,15.695,15,17,15z
		"/>
	<path d="M23.949,11C23.44,4.842,18.289,0,12,0C5.71,0,0.56,4.842,0.05,11H23.949z"/>
	<path d="M19.816,19c-0.413,1.163-1.512,2-2.816,2s-2.403-0.838-2.816-2l0,0H11v-6H0.05C0.56,19.158,5.71,24,12,24
		c4.012,0,7.554-1.977,9.732-5H19.816z"/>
	<path opacity="0.6" d="M0.05,11C0.023,11.331,0,11.663,0,12s0.023,0.669,0.05,1H11v6h3.184C14.072,18.686,14,18.353,14,18
		s0.072-0.686,0.184-1H13v-4h10.949C23.977,12.669,24,12.337,24,12s-0.023-0.669-0.051-1H0.05z"/>
</g>
</svg>
