<?xml version="1.0" encoding="utf-8"?>
<!-- Generator: Adobe Illustrator 16.0.3, SVG Export Plug-In . SVG Version: 6.00 Build 0)  -->
<!DOCTYPE svg PUBLIC "-//W3C//DTD SVG 1.1//EN" "http://www.w3.org/Graphics/SVG/1.1/DTD/svg11.dtd">
<svg version="1.1" xmlns="http://www.w3.org/2000/svg" xmlns:xlink="http://www.w3.org/1999/xlink" x="0px" y="0px"
	 width="470.928px" height="298.557px" viewBox="0 0 470.928 298.557" enable-background="new 0 0 470.928 298.557"
	 xml:space="preserve">
<g id="venn_left_right">
	<path fill="#598717" d="M297.928,135.61c-4.056-44.674-27.785-83.665-62.464-108.229C200.785,51.945,177.056,90.937,173,135.61
		c-0.409,4.503-0.629,9.06-0.629,13.668c0,50.34,24.919,94.857,63.093,121.896c38.174-27.039,63.093-71.557,63.093-121.896
		C298.557,144.67,298.336,140.113,297.928,135.61z"/>
	<path fill="#A4D233" d="M384.113,13.668C365.108,4.899,343.953,0,321.649,0c-32.104,0-61.84,10.137-86.186,27.382
		c34.679,24.563,58.408,63.555,62.464,108.229c0.408,4.503,0.629,9.06,0.629,13.668c0,50.34-24.919,94.857-63.093,121.896
		c24.346,17.245,54.081,27.382,86.186,27.382c82.444,0,149.278-66.834,149.278-149.278
		C470.928,89.137,435.358,37.312,384.113,13.668z"/>
	<path fill="#E0457B" d="M172.371,149.278c0-4.608,0.22-9.165,0.629-13.668c4.056-44.674,27.785-83.665,62.464-108.229
		C211.118,10.137,181.383,0,149.278,0c-22.303,0-43.459,4.899-62.464,13.668C35.569,37.312,0,89.137,0,149.278
		c0,82.444,66.834,149.278,149.278,149.278c32.104,0,61.84-10.137,86.186-27.382C197.29,244.136,172.371,199.618,172.371,149.278z"
		/>
</g>
</svg>
