<?xml version="1.0" encoding="utf-8"?>
<!-- Generator: Adobe Illustrator 16.0.3, SVG Export Plug-In . SVG Version: 6.00 Build 0)  -->
<!DOCTYPE svg PUBLIC "-//W3C//DTD SVG 1.1//EN" "http://www.w3.org/Graphics/SVG/1.1/DTD/svg11.dtd">
<svg version="1.1" xmlns="http://www.w3.org/2000/svg" xmlns:xlink="http://www.w3.org/1999/xlink" x="0px" y="0px"
	 width="384.742px" height="447.835px" viewBox="0 0 384.742 447.835" enable-background="new 0 0 470.928 447.835"
	 xml:space="preserve">
<g id="venn_left_upper">
	<path display="inline" fill="#994878" d="M235.464,176.66c-24.346-17.245-54.081-27.382-86.186-27.382
		c-22.303,0-43.459,4.899-62.464,13.668C91.74,217.195,125.682,263.058,173,284.889c19.004,8.769,40.161,13.668,62.464,13.668
		c22.304,0,43.459-4.899,62.464-13.668C293.872,240.215,270.143,201.224,235.464,176.66z"/>
	<path display="inline" fill="#E0457B" d="M297.928,284.889c-19.005,8.769-40.16,13.668-62.464,13.668
		c-22.303,0-43.459-4.899-62.464-13.668c-47.318-21.831-81.26-67.694-86.186-121.942C35.569,186.59,0,238.416,0,298.557
		c0,82.444,66.834,149.278,149.278,149.278c32.104,0,61.84-10.137,86.186-27.382c38.174-27.039,63.093-71.557,63.093-121.896
		C298.557,293.948,298.336,289.392,297.928,284.889z"/>
	<path display="inline" fill="#71C5E8" d="M235.464,0C153.02,0,86.186,66.834,86.186,149.278c0,4.609,0.22,9.166,0.629,13.668
		c19.004-8.769,40.161-13.668,62.464-13.668c32.104,0,61.84,10.137,86.186,27.382c34.679,24.563,58.408,63.555,62.464,108.229
		c47.318-21.831,81.26-67.694,86.186-121.942c0.408-4.502,0.629-9.059,0.629-13.668C384.742,66.834,317.908,0,235.464,0z"/>
</g>
</svg>
