<?xml version="1.0" encoding="utf-8"?>
<!-- Generator: Adobe Illustrator 16.0.3, SVG Export Plug-In . SVG Version: 6.00 Build 0)  -->
<!DOCTYPE svg PUBLIC "-//W3C//DTD SVG 1.1//EN" "http://www.w3.org/Graphics/SVG/1.1/DTD/svg11.dtd">
<svg version="1.1" xmlns="http://www.w3.org/2000/svg" xmlns:xlink="http://www.w3.org/1999/xlink" x="0px" y="0px"
	 width="470.928px" height="447.835px" viewBox="0 0 470.928 447.835" enable-background="new 0 0 470.928 447.835"
	 xml:space="preserve">
<g id="Venn_Diagram">
	<path fill="#A4D233" d="M384.113,162.946c-4.926,54.249-38.867,100.111-86.186,121.942c0.408,4.503,0.629,9.06,0.629,13.668
		c0,50.34-24.919,94.857-63.093,121.896c24.346,17.245,54.081,27.382,86.186,27.382c82.444,0,149.278-66.834,149.278-149.278
		C470.928,238.416,435.358,186.59,384.113,162.946z"/>
	<path fill="#E0457B" d="M172.371,298.557c0-4.608,0.22-9.165,0.629-13.668c-47.318-21.831-81.26-67.694-86.186-121.942
		C35.569,186.59,0,238.416,0,298.557c0,82.444,66.834,149.278,149.278,149.278c32.104,0,61.84-10.137,86.186-27.382
		C197.29,393.414,172.371,348.896,172.371,298.557z"/>
	<path fill="#598717" d="M298.557,298.557c0-4.608-0.221-9.165-0.629-13.668c-19.005,8.769-40.16,13.668-62.464,13.668
		c-22.303,0-43.459-4.899-62.464-13.668c-0.409,4.503-0.629,9.06-0.629,13.668c0,50.34,24.919,94.857,63.093,121.896
		C273.638,393.414,298.557,348.896,298.557,298.557z"/>
	<path fill="#71C5E8" d="M235.464,176.66c24.346-17.245,54.081-27.382,86.186-27.382c22.304,0,43.459,4.899,62.464,13.668
		c0.408-4.502,0.629-9.059,0.629-13.668C384.742,66.834,317.908,0,235.464,0S86.186,66.834,86.186,149.278
		c0,4.609,0.22,9.166,0.629,13.668c19.004-8.769,40.161-13.668,62.464-13.668C181.383,149.278,211.118,159.416,235.464,176.66z"/>
	<path fill="#3B7272" d="M235.464,176.66c34.679,24.563,58.408,63.555,62.464,108.229c47.318-21.831,81.26-67.694,86.186-121.942
		c-19.005-8.769-40.16-13.668-62.464-13.668C289.545,149.278,259.81,159.416,235.464,176.66z"/>
	<path fill="#994878" d="M173,284.889c4.056-44.674,27.785-83.665,62.464-108.229c-24.346-17.245-54.081-27.382-86.186-27.382
		c-22.303,0-43.459,4.899-62.464,13.668C91.74,217.195,125.682,263.058,173,284.889z"/>
	<path fill="#54585A" d="M235.464,176.66c-34.679,24.563-58.408,63.555-62.464,108.229c19.004,8.769,40.161,13.668,62.464,13.668
		c22.304,0,43.459-4.899,62.464-13.668C293.872,240.215,270.143,201.224,235.464,176.66z"/>
</g>
</svg>
