<?xml version="1.0" encoding="utf-8"?>
<!-- Generator: Adobe Illustrator 16.0.3, SVG Export Plug-In . SVG Version: 6.00 Build 0)  -->
<!DOCTYPE svg PUBLIC "-//W3C//DTD SVG 1.1//EN" "http://www.w3.org/Graphics/SVG/1.1/DTD/svg11.dtd">
<svg version="1.1" xmlns="http://www.w3.org/2000/svg" xmlns:xlink="http://www.w3.org/1999/xlink" x="0px" y="0px"
	 width="384.742px" height="447.835px" viewBox="0 0 384.742 447.835" enable-background="new 0 0 384.742 447.835"
	 xml:space="preserve">
<g id="venn_right_upper">
	<path fill="#3B7272" d="M235.464,149.278c-32.104,0-61.84,10.137-86.186,27.382c-34.679,24.563-58.408,63.555-62.464,108.229
		c19.004,8.769,40.161,13.668,62.464,13.668c22.304,0,43.459-4.899,62.464-13.668c47.318-21.831,81.26-67.694,86.186-121.942
		C278.923,154.178,257.768,149.278,235.464,149.278z"/>
	<path fill="#A4D233" d="M297.928,162.946c-4.926,54.249-38.867,100.111-86.186,121.942c-19.005,8.769-40.16,13.668-62.464,13.668
		c-22.303,0-43.459-4.899-62.464-13.668c-0.409,4.503-0.629,9.06-0.629,13.668c0,50.34,24.919,94.857,63.093,121.896
		c24.346,17.245,54.081,27.382,86.186,27.382c82.444,0,149.278-66.834,149.278-149.278
		C384.742,238.416,349.173,186.59,297.928,162.946z"/>
	<path fill="#71C5E8" d="M149.278,0C66.834,0,0,66.834,0,149.278c0,4.609,0.22,9.166,0.629,13.668
		c4.925,54.249,38.867,100.111,86.186,121.942c4.056-44.674,27.785-83.665,62.464-108.229
		c24.346-17.245,54.081-27.382,86.186-27.382c22.304,0,43.459,4.899,62.464,13.668c0.408-4.502,0.629-9.059,0.629-13.668
		C298.557,66.834,231.723,0,149.278,0z"/>
</g>
</svg>
