<?xml version="1.0" encoding="utf-8"?>
<!-- Generator: Adobe Illustrator 16.0.3, SVG Export Plug-In . SVG Version: 6.00 Build 0)  -->
<!DOCTYPE svg PUBLIC "-//W3C//DTD SVG 1.1//EN" "http://www.w3.org/Graphics/SVG/1.1/DTD/svg11.dtd">
<svg version="1.1" xmlns="http://www.w3.org/2000/svg" xmlns:xlink="http://www.w3.org/1999/xlink" x="0px" y="0px" width="24px"
	 height="24px" viewBox="0 0 24 24" enable-background="new 0 0 24 24" xml:space="preserve">
<g id="Preventable">
	<path d="M18.816,13c-0.413,1.163-1.512,2-2.816,2s-2.403-0.837-2.816-2H8v4H6v-4H0.05C0.56,19.158,5.71,24,12,24
		c6.289,0,11.44-4.842,11.949-11H18.816z"/>
	<path d="M13.184,11C13.597,9.837,14.695,9,16,9s2.403,0.837,2.816,2h5.133C23.44,4.842,18.289,0,12,0C5.71,0,0.56,4.842,0.05,11H6
		V7h2v4H13.184z"/>
	<path opacity="0.6" d="M6,11H0.05C0.023,11.331,0,11.663,0,12s0.023,0.669,0.05,1H6V11z"/>
	<path opacity="0.6" d="M23.949,11h-5.133C18.403,9.837,17.305,9,16,9s-2.403,0.837-2.816,2H8v2h5.184c0.413,1.163,1.512,2,2.816,2
		s2.403-0.837,2.816-2h5.133C23.977,12.669,24,12.337,24,12S23.977,11.331,23.949,11z"/>
</g>
</svg>
